<svg xmlns="http://www.w3.org/2000/svg" baseProfile="full" version="1.1" style="fill: none;" viewBox="595 385 325 310"><path style="stroke-width: 15px; stroke-linecap: round; stroke-linejoin: round; stroke: rgb(106, 106, 106); fill: none;" d=""/><path style="stroke-width: 15px; stroke-linecap: round; stroke-linejoin: round; stroke: rgb(74, 74, 74); fill: none;" d=""/><path style="stroke-width: 14px; stroke-linecap: square; stroke-linejoin: miter; stroke: rgb(10, 10, 10); fill: none;" d="M690,630 A30,30 0 0,0 660,600 L660,600 A30,30 0 0,0 630,630 M690,630 A30,30 0 0,1 660,660 L660,660 A30,30 0 0,1 630,630 M660,600 L660,600 L660,480 A30,30 0 0,1 630,450 L630,450 A30,30 0 0,1 660,420 L660,420 A30,30 0 0,1 690,450 M660,480 A30,30 0 0,0 690,450 M690,630 L690,630 L825,630 A30,30 0 0,1 855,600 M885,630 A30,30 0 0,0 855,600 M885,630 A30,30 0 0,1 855,660 M825,630 A30,30 0 0,0 855,660 M690,480 L690,480 L825,600 "/></svg>